<svg width="22" height="20" viewBox="0 0 22 20" xmlns="http://www.w3.org/2000/svg">
<path d="M9.89485 0.85958C10.1947 -0.0606967 11.4966 -0.0606959 11.7965 0.859581L13.5476 6.23398C13.6817 6.64561 14.0654 6.92418 14.4984 6.92418H20.1591C21.1285 6.92418 21.5308 8.16521 20.7458 8.73398L16.171 12.0486C15.8195 12.3033 15.6724 12.7555 15.8069 13.1682L17.5554 18.5349C17.8555 19.4557 16.8022 20.2227 16.0179 19.6544L11.4324 16.3321C11.0823 16.0784 10.609 16.0784 10.2589 16.3321L5.67339 19.6544C4.88913 20.2227 3.83584 19.4557 4.13587 18.5348L5.88444 13.1682C6.01889 12.7555 5.87181 12.3033 5.52035 12.0486L0.945479 8.73398C0.160473 8.16521 0.562804 6.92418 1.5322 6.92418H7.19295C7.62588 6.92418 8.00964 6.64561 8.14376 6.23398L9.89485 0.85958Z"/>
</svg>
